# Blender v2.80 (sub 75) OBJ File: 'dock_1.blend'
# www.blender.org
mtllib dock.mtl
o Cube.001
v -0.340000 -0.240000 -0.240000
v -0.340000 -0.240000 0.240000
v 0.360000 0.260000 -0.260000
v 0.360000 -0.260000 -0.260000
v 0.360000 0.260000 0.260000
v 0.360000 -0.260000 0.260000
v -0.360000 0.260000 -0.260000
v -0.360000 -0.260000 -0.260000
v -0.360000 0.260000 0.260000
v -0.360000 -0.260000 0.260000
v 0.360000 -0.240000 -0.240000
v -0.340000 0.260000 -0.240000
v 0.360000 0.260000 -0.240000
v 0.360000 -0.240000 0.240000
v -0.340000 0.260000 0.240000
v 0.360000 0.260000 0.240000
v 0.336600 -0.237600 -0.260000
v 0.336600 -0.237600 0.240000
v 0.336600 -0.237600 0.260000
v 0.336600 -0.237600 -0.240000
v -0.336600 0.237600 -0.260000
v -0.336600 0.237600 0.240000
v -0.336600 0.237600 0.260000
v -0.336600 0.237600 -0.240000
v 0.336600 0.237600 -0.240000
v 0.336600 0.237600 -0.260000
v 0.336600 0.237600 0.240000
v 0.336600 0.237600 0.260000
v -0.336600 -0.237600 -0.260000
v -0.336600 -0.237600 0.240000
v -0.336600 -0.237600 0.260000
v -0.336600 -0.237600 -0.240000
v -0.340000 -0.091002 -0.096962
v -0.340000 -0.091002 0.096962
v -0.340000 0.111002 -0.096962
v -0.340000 0.111002 0.096962
vt 0.625000 0.500000
vt 0.865385 0.500000
vt 0.865385 0.500000
vt 0.625000 0.500000
vt 0.375000 0.750000
vt 0.375000 1.000000
vt 0.618056 1.000000
vt 0.618056 0.750000
vt 0.626154 0.501181
vt 0.854615 0.501181
vt 0.854615 0.734931
vt 0.865385 0.743056
vt 0.375000 0.000000
vt 0.625000 0.000000
vt 0.625000 0.250000
vt 0.375000 0.250000
vt 0.375000 0.240385
vt 0.618056 0.240385
vt 0.618056 0.009615
vt 0.375000 0.009615
vt 0.375000 0.250000
vt 0.625000 0.250000
vt 0.614231 0.258125
vt 0.385769 0.258125
vt 0.385769 0.491875
vt 0.375000 0.500000
vt 0.625000 0.500000
vt 0.625000 0.750000
vt 0.375000 0.750000
vt 0.625000 0.750000
vt 0.625000 1.000000
vt 0.375000 1.000000
vt 0.125000 0.500000
vt 0.375000 0.500000
vt 0.375000 0.509615
vt 0.134615 0.509615
vt 0.134615 0.740384
vt 0.375000 0.740385
vt 0.375000 0.750000
vt 0.125000 0.750000
vt 0.625000 0.500000
vt 0.875000 0.500000
vt 0.864231 0.508125
vt 0.635769 0.508125
vt 0.635769 0.741875
vt 0.375000 0.256944
vt 0.375000 0.500000
vt 0.615385 0.500000
vt 0.604615 0.498819
vt 0.376154 0.498819
vt 0.376154 0.265069
vt 0.375000 1.000000
vt 0.375000 1.000000
vt 0.625000 1.000000
vt 0.625000 1.000000
vt 0.375000 1.000000
vt 0.375000 1.000000
vt 0.625000 1.000000
vt 0.625000 1.000000
vt 0.604615 0.265069
vt 0.615385 0.256944
vt 0.626154 0.734931
vt 0.625000 0.743056
vt 0.125000 0.750000
vt 0.125000 0.750000
vt 0.375000 0.750000
vt 0.375000 0.750000
vt 0.125000 0.750000
vt 0.125000 0.750000
vt 0.375000 0.750000
vt 0.375000 0.750000
vt 0.864231 0.741875
vt 0.875000 0.750000
vt 0.625000 0.500000
vt 0.625000 0.500000
vt 0.375000 0.500000
vt 0.375000 0.500000
vt 0.625000 0.500000
vt 0.625000 0.500000
vt 0.375000 0.500000
vt 0.375000 0.500000
vt 0.375000 0.250000
vt 0.375000 0.250000
vt 0.625000 0.250000
vt 0.625000 0.250000
vt 0.375000 0.250000
vt 0.375000 0.250000
vt 0.625000 0.250000
vt 0.625000 0.250000
vt 0.614231 0.491875
vt 0.375000 0.750000
vt 0.375000 1.000000
vt 0.618056 0.240385
vt 0.618056 0.009615
vt 0.375000 0.500000
vt 0.615385 0.500000
vt 0.001079 0.001631
vt 0.001079 0.997784
vt 0.997561 0.997784
vt 0.997561 0.001631
vn 1.0000 0.0000 0.0000
vn 0.0000 1.0000 0.0000
vn -0.0000 0.0000 1.0000
vn -1.0000 0.0000 0.0000
vn 0.0000 -1.0000 0.0000
vn 0.0000 0.0000 -1.0000
usemtl Material.001
s off
f 1/1/1 12/2/1 35/3/1 33/4/1
f 1/5/2 2/6/2 14/7/2 11/8/2
f 1/1/3 32/9/3 24/10/3 25/11/3 13/12/3 12/2/3
f 3/13/2 7/14/2 9/15/2 5/16/2 16/17/2 15/18/2 12/19/2 13/20/2
f 6/21/3 5/22/3 28/23/3 19/24/3 31/25/3 10/26/3
f 10/26/4 9/27/4 7/28/4 8/29/4
f 8/29/5 4/30/5 6/31/5 10/32/5
f 4/33/1 3/34/1 13/35/1 11/36/1 14/37/1 16/38/1 5/39/1 6/40/1
f 8/41/6 7/42/6 21/43/6 29/44/6 17/45/6 4/30/6
f 14/46/6 2/47/6 15/48/6 22/49/6 30/50/6 18/51/6
f 29/52/2 32/53/2 20/54/2 17/55/2
f 30/56/2 31/57/2 19/58/2 18/59/2
f 27/60/6 22/49/6 15/48/6 16/61/6 14/46/6 18/51/6
f 13/12/3 25/11/3 20/62/3 32/9/3 1/1/3 11/63/3
f 17/64/4 20/65/4 25/66/4 26/67/4
f 18/68/4 19/69/4 28/70/4 27/71/4
f 4/30/6 17/45/6 26/72/6 21/43/6 7/42/6 3/73/6
f 21/74/1 24/75/1 32/76/1 29/77/1
f 22/78/1 23/79/1 31/80/1 30/81/1
f 26/82/5 25/83/5 24/84/5 21/85/5
f 27/86/5 28/87/5 23/88/5 22/89/5
f 10/26/3 31/25/3 23/90/3 28/23/3 5/22/3 9/27/3
f 2/6/1 1/5/1 33/91/1 34/92/1
f 12/19/1 15/18/1 36/93/1 35/94/1
f 15/48/1 2/47/1 34/95/1 36/96/1
usemtl April_0
f 34/97/1 33/98/1 35/99/1 36/100/1
